<?xml version="1.0" standalone="no"?>
<!DOCTYPE svg PUBLIC "-//W3C//DTD SVG 1.1//EN" "http://www.w3.org/Graphics/SVG/1.1/DTD/svg11.dtd" >
<!--
2013-9-30: Created.
-->
<svg>
<metadata>
Created by iconfont
</metadata>
<defs>

<font id="iconfont" horiz-adv-x="1024" >
  <font-face
    font-family="iconfont"
    font-weight="500"
    font-stretch="normal"
    units-per-em="1024"
    ascent="896"
    descent="-128"
  />
    <missing-glyph />
    
    <glyph glyph-name="tuozhuai" unicode="&#59004;" d="M960.1 383.9L768.2 576v-127.7H576.1V640.2h128.8L513.2 832 321.1 640.2h127v-191.9H256V576L64.2 383.9 256 192.1V320.2h192.1v-192.8h-127l192.1-191.9 191.7 191.9H576.1V320.2h192.1v-128.1z"  horiz-adv-x="1024" />

    
    <glyph glyph-name="yanjing" unicode="&#58899;" d="M515.2 672C208 672 22.4 358.4 22.4 358.4s214.4-304 492.8-304 492.8 304 492.8 304S822.4 672 515.2 672zM832 243.2c-102.4-86.4-211.2-140.8-320-140.8s-217.6 51.2-320 140.8c-35.2 32-70.4 64-99.2 99.2-6.4 6.4-9.6 12.8-16 19.2 3.2 6.4 9.6 12.8 12.8 19.2 25.6 35.2 57.6 70.4 92.8 102.4 99.2 89.6 208 144 329.6 144s230.4-54.4 329.6-144c35.2-32 64-67.2 92.8-102.4 3.2-6.4 9.6-12.8 12.8-19.2-3.2-6.4-9.6-12.8-16-19.2-28.8-32-60.8-67.2-99.2-99.2zM512 550.4c-96 0-169.6-76.8-169.6-169.6 0-96 76.8-169.6 169.6-169.6 96 0 169.6 76.8 169.6 169.6S604.8 550.4 512 550.4z m0-294.4c-67.2 0-121.6 54.4-121.6 121.6 0 67.2 54.4 121.6 121.6 121.6 67.2 0 121.6-54.4 121.6-121.6 0-64-54.4-121.6-121.6-121.6z"  horiz-adv-x="1024" />

    
    <glyph glyph-name="yanjing1" unicode="&#59088;" d="M954.4 540.9c9.6 14.4 6.4 33.6-6.4 44.9-14.4 11.2-33.6 8-44.9-6.4-1.6-1.6-179.5-211.5-391-211.5-205.1 0-391 211.5-392.6 213.1-11.2 12.8-32 14.4-44.9 3.2-12.8-11.2-14.4-32-3.2-44.9 3.2-4.8 41.7-48.1 102.6-96.1l-81.7-84.9c-12.8-12.8-11.2-33.6 1.6-44.9 3.2-6.4 11.2-9.6 19.2-9.6s16 3.2 22.4 9.6l88.1 91.3c41.7-28.8 91.3-56.1 145.8-75.3l-33.6-113.8c-4.8-17.6 4.8-35.3 22.4-40.1h9.6c14.4 0 27.2 9.6 30.4 24L432 313.3c25.6-4.8 52.9-8 80.1-8 27.2 0 54.5 3.2 80.1 8l33.6-112.2c3.2-14.4 17.6-24 30.4-24 3.2 0 6.4 0 8 1.6 17.6 4.8 27.2 22.4 22.4 40.1L653.2 331c54.5 19.2 104.2 46.5 145.8 75.3l86.5-89.7c6.4-6.4 14.4-9.6 22.4-9.6 8 0 16 3.2 22.4 9.6 12.8 12.8 12.8 32 1.6 44.9l-81.7 84.9c65.8 48 104.2 94.5 104.2 94.5z"  horiz-adv-x="1024" />

    
    <glyph glyph-name="mima" unicode="&#59188;" d="M637.199888 488.302892v76.982986a129.929977 129.929977 0 0 1-259.319954-0.325v-76.603986H637.199888zM533.255906 290.158926a50.564991 50.564991 0 0 1 25.985996 44.229993 51.700991 51.700991 0 0 1-103.402982 0 50.564991 50.564991 0 0 1 25.985995-44.229993v-84.075985h51.429991V290.159926z m-18.406997-417.671926a511.76291 511.76291 0 1 0 515.38991 511.76291 513.98291 513.98291 0 0 0-515.38991-511.76291zM688.629879 488.247892v77.037986a181.089968 181.089968 0 0 1-362.179936 0v-76.982986h-77.957987v-359.149937h518.096909v359.149937H688.629879z m0 0"  horiz-adv-x="1030" />

    
    <glyph glyph-name="zhanghao" unicode="&#59274;" d="M515.310273 895.512837a511.737744 511.737744 0 1 1 515.851565-511.683615A514.877239 514.877239 0 0 1 515.310273 895.512837m0-153.510497a153.510497 153.510497 0 1 0-154.268306-153.510498 151.561845 151.561845 0 0 0 154.268306 153.510498m0-726.630789a376.739443 376.739443 0 0 0-309.077905 163.740922c0 102.358375 206.232368 158.652774 309.077905 158.652774s309.619198-56.24027 309.619198-158.652774a377.767899 377.767899 0 0 0-309.619198-163.740922"  horiz-adv-x="1031" />

    
    <glyph glyph-name="baocun" unicode="&#58953;" d="M877.79088 895.999405H146.209715A145.852077 145.852077 0 0 1 0.000595 749.790285v-731.581165a146.268627 146.268627 0 0 1 146.20912-146.20912h731.581165a146.268627 146.268627 0 0 1 146.20912 146.20912V749.790285A145.852077 145.852077 0 0 1 877.79088 895.999405zM295.572715 820.663326h434.402351v-288.133724h-434.402351z m655.650014-802.454206a73.491357 73.491357 0 0 0-73.431849-73.431849H146.209715a72.777271 72.777271 0 0 0-51.890253 21.541596 71.408606 71.408606 0 0 0-21.541596 51.890253V749.790285a73.491357 73.491357 0 0 0 73.431849 73.431849h73.43185v-292.358733A73.491357 73.491357 0 0 1 292.418835 457.431552h439.222432a73.491357 73.491357 0 0 1 73.43185 73.431849v291.58514h72.77727a73.491357 73.491357 0 0 0 73.43185-73.431849zM582.873339 756.157552a38.08459 38.08459 0 0 1-37.965576-37.965575v-73.43185a38.08459 38.08459 0 0 1 37.965576-37.965575 35.704303 35.704303 0 0 1 26.599705 11.36587 39.036704 39.036704 0 0 1 11.425377 26.599705V718.191977a38.08459 38.08459 0 0 1-38.025082 37.965575z"  horiz-adv-x="1024" />

    
    <glyph glyph-name="jilu" unicode="&#59270;" d="M950.457673 763.735664a76.086947 76.086947 0 0 1-75.779355 76.058984H132.264336a76.142873 76.142873 0 0 1-76.058984-76.058984v-707.460405a76.142873 76.142873 0 0 1 76.058984-76.058984h249.708357v-56.205352H132.264336A132.348225 132.348225 0 0 0 0 56.275259V763.735664A132.348225 132.348225 0 0 0 132.264336 896h742.413982a132.348225 132.348225 0 0 0 132.264336-132.264336v-249.708357h-56.484981V763.735664zM359.602403 493.33479a22.370289 22.370289 0 0 0 22.37029-22.37029v-15.379574a22.370289 22.370289 0 0 0-22.37029-22.370289H255.300928a22.370289 22.370289 0 0 0-22.370289 22.370289v15.379574a22.370289 22.370289 0 0 0 22.370289 22.37029h104.301475zM232.930639 626.717641a23.74047 23.74047 0 0 0 23.768433 23.768432h312.345166a23.684544 23.684544 0 0 0 23.488804-23.768432v-12.583288a23.684544 23.684544 0 0 0-23.488804-23.768433H256.699072a23.74047 23.74047 0 0 0-23.768433 23.768433v12.583288z m541.081376-226.77881a263.969416 263.969416 0 1 0-264.249044-263.969415 264.10923 264.10923 0 0 0 264.249044 263.969415z m0-471.733479a207.764063 207.764063 0 1 1-207.764063 207.764064 208.071655 208.071655 0 0 1 207.764063-207.764064z m-19.574003 332.758056h8.10923a25.586019 25.586019 0 0 0 25.446204-25.725833v-81.651556h47.257237a25.530093 25.530093 0 0 0 25.446204-25.446205v-8.388858a25.530093 25.530093 0 0 0-25.446204-25.446204h-80.812671a25.530093 25.530093 0 0 0-25.446204 25.446204v115.486619a25.586019 25.586019 0 0 0 25.446204 25.725833z"  horiz-adv-x="1037" />

    
    <glyph glyph-name="fabu" unicode="&#58908;" d="M1021.696 533.504c189.44 0 343.637333-148.394667 343.637333-330.752C1365.333333 20.394667 1211.136-128 1021.696-128h-294.4v93.525333h294.4c135.850667 0 246.442667 106.410667 246.442667 237.226667 0 130.816-110.592 237.226667-246.442667 237.226667h-98.730667l0.853334 52.821333c0 170.666667-144.213333 309.76-321.706667 309.76s-321.877333-139.093333-321.877333-309.76c0-7.082667 0.341333-14.506667 1.024-23.552l2.645333-33.962667-32.682667-12.8c-93.610667-36.864-154.026667-123.050667-154.026666-219.733333 0-130.816 110.592-237.226667 246.442666-237.226667h114.773334V-128H343.637333C154.197333-128 0 20.394667 0 202.752 0 326.4 70.826667 437.76 183.125333 494.933333 184.32 716.288 371.712 896 602.112 896c216.746667 0 395.52-159.232 416.853333-362.496h2.730667z m-165.12-290.901333l-68.778667-66.133334-141.568 136.277334v-436.053334H549.12V311.466667l-141.653333-136.277334-68.693334 66.133334 259.584 249.770666 258.218667-248.490666z"  horiz-adv-x="1365" />

    
    <glyph glyph-name="banbenjilu" unicode="&#58897;" d="M512-42.667c-234.667 0-426.667 192-426.667 426.667 0 25.6 17.067 42.667 42.667 42.667S170.667 409.6 170.667 384c0-187.733 153.6-341.333 341.333-341.333S853.333 196.267 853.333 384 699.733 725.333 512 725.333c-115.2 0-221.867-55.466-281.6-153.6-17.067-17.066-42.667-21.333-59.733-8.533-21.334 12.8-25.6 38.4-12.8 59.733C234.667 738.133 371.2 810.667 512 810.667c234.667 0 426.667-192 426.667-426.667S746.667-42.667 512-42.667z m0 384c-25.6 0-42.667 17.067-42.667 42.667V597.333C469.333 622.933 486.4 640 512 640s42.667-17.067 42.667-42.667V384c0-25.6-17.067-42.667-42.667-42.667z m128-128c-12.8 0-21.333 4.267-29.867 12.8l-128 128c-17.066 17.067-17.066 42.667 0 59.734s42.667 17.066 59.734 0l128-128c17.066-17.067 17.066-42.667 0-59.734-8.534-8.533-17.067-12.8-29.867-12.8zM341.333 554.667H170.667c-25.6 0-42.667 17.066-42.667 42.666V768c0 25.6 17.067 42.667 42.667 42.667S213.333 793.6 213.333 768v-128h128c25.6 0 42.667-17.067 42.667-42.667s-17.067-42.666-42.667-42.666z"  horiz-adv-x="1024" />

    
    <glyph glyph-name="shujuyuanguanli-02" unicode="&#58984;" d="M988.16 76.8c0 25.6 15.36 46.08 35.84 51.2-5.12 20.48-15.36 35.84-20.48 56.32-20.48-10.24-46.08-5.12-61.44 10.24-15.36 15.36-20.48 40.96-10.24 61.44-15.36 10.24-35.84 15.36-56.32 20.48-10.24-20.48-30.72-35.84-51.2-35.84-25.6 0-46.08 15.36-51.2 35.84-20.48-5.12-35.84-10.24-56.32-20.48 10.24-20.48 5.12-46.08-10.24-61.44-15.36-15.36-40.96-20.48-61.44-10.24-10.24-15.36-20.48-35.84-20.48-56.32 20.48-10.24 35.84-30.72 35.84-51.2 0-25.6-15.36-46.08-35.84-51.2 5.12-20.48 15.36-35.84 20.48-56.32 20.48 10.24 46.08 5.12 61.44-10.24 15.36-15.36 20.48-40.96 10.24-61.44 15.36-10.24 35.84-15.36 56.32-20.48 10.24 20.48 30.72 35.84 51.2 35.84 25.6 0 46.08-15.36 51.2-35.84 20.48 5.12 35.84 15.36 56.32 20.48-10.24 20.48-5.12 46.08 10.24 61.44 15.36 15.36 40.96 20.48 61.44 10.24 10.24 15.36 20.48 35.84 20.48 56.32-20.48 5.12-35.84 25.6-35.84 51.2zM819.2 20.48c-30.72 0-56.32 25.6-56.32 56.32 0 30.72 25.6 56.32 56.32 56.32s56.32-25.6 56.32-56.32c0-30.72-25.6-56.32-56.32-56.32zM409.6 486.4c225.28 0 409.6 66.56 409.6 153.6V742.4c0 87.04-184.32 153.6-409.6 153.6S0 829.44 0 742.4v-102.4c0-87.04 184.32-153.6 409.6-153.6zM819.2 537.6c0-87.04-184.32-153.6-409.6-153.6S0 450.56 0 537.6v-204.8c0-87.04 184.32-153.6 409.6-153.6 40.96 0 81.92 0 122.88 5.12 46.08 117.76 153.6 199.68 286.72 199.68V537.6zM512 81.92c-30.72-5.12-66.56-5.12-102.4-5.12-225.28 0-409.6 66.56-409.6 153.6v-204.8c0-87.04 184.32-153.6 409.6-153.6 61.44 0 117.76 5.12 168.96 15.36-40.96 51.2-66.56 117.76-66.56 194.56 0-5.12 0 0 0 0z"  horiz-adv-x="1024" />

    
    <glyph glyph-name="sousuo" unicode="&#58893;" d="M989.371623 5.445099l-325.092939 351.641558c31.845578 53.352512 50.416848 115.512018 50.416847 182.13884a356.619424 356.619424 0 1 1-159.802261-297.267945l318.774878-344.876766a79.135305 79.135305 0 1 1 115.703475 108.364313zM80.719627 539.225497a277.4203 277.4203 0 1 0 554.77678 0 277.4203 277.4203 0 0 0-554.77678 0z"  horiz-adv-x="1024" />

    
    <glyph glyph-name="shouqi" unicode="&#58926;" d="M512.149333-127.97866699999997c282.773333 0 511.936 229.141333 511.936 511.91466701C1024.085333 666.688 794.816 895.978667 512.042667 895.97866699S0 666.688 0 383.93600000000004c0-282.773333 229.269333-511.914667 512.149333-511.914667z m0 960c247.488 0 448-200.597333 448-447.978666 0-247.33866701-200.618667-448-448-448-247.33866701 0-448.064 200.533333-448.064 447.872 0 247.509333 200.597333 448.106667 448.064 448.106666z m-28.16-593.194666c7.722667-7.744 18.19733299-10.133333 28.16-8.384 9.984-1.749333 20.43733299 0.618667 28.181334 8.384l244.885333 245.098666a32.085333 32.085333 0 0 1 0 45.269334 32.064 32.064 0 0 1-45.248 0L512.042667 301.24800000000005 284.138667 529.194667a32.085333 32.085333 0 0 1-45.269334 0 32.085333 32.085333 0 0 1 0-45.269334l245.12-245.098666z"  horiz-adv-x="1024" />

    
    <glyph glyph-name="shezhi" unicode="&#58884;" d="M881 384c0 52.4 32.9 96.8 79 114.5-11 43.2-28 83.9-50.2 121.3C864.6 599.7 810 607.9 773 645c-37 37-45.2 91.7-25.1 136.8C710.4 804 669.7 821 626.5 832c-17.8-46.1-62.2-79-114.5-79-52.4 0-96.8 32.9-114.5 79-43.2-11-83.9-28-121.3-50.2 20.1-45.2 11.9-99.8-25.1-136.8-37-37-91.7-45.2-136.8-25.2C92 582.4 75 541.7 64 498.5c46.1-17.8 79-62.2 79-114.5 0-52.4-32.9-96.8-79-114.5 11-43.2 28-83.9 50.2-121.3C159.4 168.3 214 160.1 251 123c37-37 45.2-91.7 25.1-136.8C313.6-36 354.3-53 397.5-64c17.8 46.1 62.2 79 114.5 79 52.4 0 96.8-32.9 114.5-79 43.2 11 83.9 28 121.3 50.2-20.1 45.2-11.9 99.8 25.1 136.8 37 37 91.7 45.2 136.8 25.2C932 185.6 949 226.3 960 269.5c-46.1 17.7-79 62.1-79 114.5zM512 261c-67.9 0-123 55.1-123 123s55.1 123 123 123 123-55.1 123-123-55.1-123-123-123z"  horiz-adv-x="1024" />

    
    <glyph glyph-name="iFrame" unicode="&#58901;" d="M984.619 896C1006.293 896 1024 878.336 1024 856.619V-88.62A39.467 39.467 0 0 0 984.619-128H39.38A39.467 39.467 0 0 0 0-88.619V856.62C0 878.336 17.707 896 39.381 896zM845.525 182.528c-19.072 0-34.602-6.272-46.549-18.859-11.947-12.586-17.92-30.677-17.92-54.272 0-25.173 6.57-43.306 19.84-54.485 13.227-11.179 28.544-16.725 45.867-16.725 20.992 0 37.333 6.613 49.024 19.84 5.973 6.698 9.898 13.269 11.648 19.754l0.981 4.864h-36.395a29.696 29.696 0 0 0-6.613-9.386 25.557 25.557 0 0 0-17.92-6.23 30.293 30.293 0 0 0-17.707 5.12c-6.954 4.694-11.093 12.459-12.458 23.168l-0.427 5.59h93.27a181.632 181.632 0 0 1-1.153 27.008 68.693 68.693 0 0 1-10.368 28.16 53.632 53.632 0 0 1-22.485 20.053c-9.088 4.267-19.285 6.4-30.635 6.4z m-370.133-0.341c-22.912 0-39.083-6.016-48.512-18.006-4.693-6.144-7.808-13.653-9.216-22.485l-0.768-6.912h34.39a25.984 25.984 0 0 0 4.991 12.501c3.499 4.182 9.472 6.272 17.878 6.272 7.509 0 13.184-1.066 17.066-3.2 3.84-2.133 5.803-5.973 5.803-11.562 0-4.566-2.56-7.979-7.637-10.112a42.07 42.07 0 0 0-9.515-2.475l-4.608-0.683-12.117-1.493c-13.739-1.707-24.15-4.693-31.232-8.747-12.928-7.509-19.414-19.626-19.414-36.352 0-12.928 4.054-22.912 12.075-29.952 8.064-7.04 18.219-10.581 30.55-10.581 9.685 0 18.346 2.219 26.026 6.656 6.4 3.755 12.075 8.277 16.981 13.61 0.256-3.071 0.598-5.845 1.024-8.234l0.854-3.755 1.365-4.01h38.784v5.248a12.8 12.8 0 0 0-5.248 4.138c-1.195 1.664-1.877 4.822-2.133 9.472a710.485 710.485 0 0 0-0.214 11.094l-0.042 4.693v62.464c0 16.427-5.803 27.605-17.366 33.536a86.187 86.187 0 0 1-39.765 8.875zM202.411 178.9h-36.139v-136.234h36.139V178.9z m84.736 49.92c-19.755 0-32.214-4.096-37.376-12.288-4.224-4.693-6.614-12.757-7.254-24.149l-0.128-5.973v-8.747h-19.498v-25.13h19.882v-109.867h35.499V152.533h23.381v25.174h-23.381v11.477c0 2.645 0.896 5.12 2.688 7.296 1.792 2.219 5.035 3.243 9.728 3.115 3.541-0.086 6.315-0.214 8.32-0.384l1.75-0.171v29.013l-7.467 0.555a90.71 90.71 0 0 1-6.144 0.17z m109.013-46.634c-10.667 0-19.328-2.816-26.027-8.406a61.312 61.312 0 0 1-11.136-13.525l-3.242-5.12v23.765h-33.963v-136.234h35.84v65.109c0 10.923 1.408 19.03 4.139 24.277 4.906 9.302 14.506 13.995 28.885 13.995l4.267-0.128 2.773-0.17 3.2-0.342v36.523a106.795 106.795 0 0 0-4.736 0.256z m320.256-0.256c-9.003 0-17.195-1.878-24.533-5.632a45.312 45.312 0 0 1-17.366-17.622 39.979 39.979 0 0 1-11.733 16.384c-6.4 4.566-14.848 6.827-25.259 6.827-11.008 0-19.968-2.645-26.88-7.979a47.061 47.061 0 0 1-9.216-10.197l-3.285-4.907v19.84h-34.603v-135.978h36.096v82.005c0 7.424 0.982 13.013 2.902 16.725 3.498 6.614 10.325 9.899 20.48 9.899 8.746 0 14.634-3.285 17.621-9.899 1.323-2.901 2.133-7.253 2.39-13.013l0.127-4.608v-81.11h35.84v81.11c0 6.101 0.982 11.307 2.902 15.659 3.754 8.149 10.538 12.245 20.352 12.245 8.533 0 14.336-3.2 17.493-9.515a24.064 24.064 0 0 0 2.261-7.893l0.256-4.864v-86.741h36.523l0.256 85.888c0 8.832-0.427 15.53-1.28 20.096a39.595 39.595 0 0 1-23.637 29.738 47.445 47.445 0 0 1-17.707 3.542z m-219.52-73.003v-13.227c-0.256-11.946-3.584-20.138-10.07-24.661a36.267 36.267 0 0 0-21.162-6.741 19.072 19.072 0 0 0-12.33 4.053c-3.414 2.73-5.078 7.125-5.078 13.227 0 6.826 2.773 11.818 8.277 15.104a39.808 39.808 0 0 0 10.88 3.84l5.248 1.024 7.979 1.493c4.01 0.768 7.168 1.579 9.43 2.432l3.413 1.536 3.413 1.92z m348.587 44.245c7.637 0 13.994-2.432 19.114-7.338 5.12-4.864 7.979-11.99 8.534-21.419h-55.339a38.699 38.699 0 0 0 8.533 20.992c4.566 5.163 10.966 7.765 19.2 7.765z m-643.03 74.88h-36.138V195.2h36.138v32.853z m318.294 492.075a28.416 28.416 0 0 1-10.923-18.39l-48.64-301.78c-2.432-15.36 7.424-29.995 22.101-32.64a25.856 25.856 0 0 1 20.054 4.863 28.501 28.501 0 0 1 10.922 18.347l48.64 301.739a29.44 29.44 0 0 1-4.608 21.12 26.795 26.795 0 0 1-17.493 11.52 25.77 25.77 0 0 1-20.053-4.779z m-157.227-53.93l-96-93.057a37.632 37.632 0 0 1 0-54.314l95.957-93.056c5.206-5.12 12.075-7.638 18.944-7.638 6.827 0 13.739 2.56 18.944 7.638a25.472 25.472 0 0 1 0 36.778l-85.973 83.414 86.016 83.456a25.515 25.515 0 0 1 7.339 25.301 26.453 26.453 0 0 1-19.2 18.56 27.35 27.35 0 0 1-26.027-7.083z m270.805 7.04a26.453 26.453 0 0 1-19.029-18.433 25.557 25.557 0 0 1 6.997-25.173l86.187-83.627-86.187-83.669a25.515 25.515 0 0 1 0.299-36.565 27.435 27.435 0 0 1 37.675-0.299l96.085 93.27a37.632 37.632 0 0 1 0 54.442l-96.085 93.312a27.435 27.435 0 0 1-25.942 6.741z"  horiz-adv-x="1024" />

    
    <glyph glyph-name="fanhui2" unicode="&#58890;" d="M235.243243 384 740.625148 896 788.756757 798.476191 379.638073 384 788.756757-30.476177 740.625148-128 235.243243 384Z"  horiz-adv-x="1024" />

    
    <glyph glyph-name="tianjiashujuyuan" unicode="&#59052;" d="M737.28 660.48v163.84c0 12.288 8.192 20.48 20.48 20.48s20.48-8.192 20.48-20.48v-163.84h163.84c12.288 0 20.48-8.192 20.48-20.48s-8.192-20.48-20.48-20.48h-163.84v-163.84c0-12.288-8.192-20.48-20.48-20.48s-20.48 8.192-20.48 20.48v163.84h-163.84c-12.288 0-20.48 8.192-20.48 20.48s8.192 20.48 20.48 20.48h163.84z m-634.88-380.928c0-69.632 163.84-137.216 368.64-137.216s368.64 65.536 368.64 137.216V445.44c0 10.24 8.192 20.48 20.48 20.48s20.48-10.24 20.48-20.48v-374.784c0-100.352-180.224-178.176-409.6-178.176s-409.6 77.824-409.6 178.176v628.736c2.048 102.4 184.32 176.128 409.6 176.128 59.392 0 116.736-6.144 167.936-14.336 10.24-2.048 18.432-12.288 16.384-24.576-2.048-10.24-12.288-18.432-24.576-16.384-49.152 10.24-102.4 14.336-157.696 14.336h-26.624c-63.488-2.048-122.88-10.24-174.08-22.528-104.448-26.624-167.936-71.68-167.936-112.64 0-69.632 163.84-137.216 368.64-137.216 12.288 0 20.48-8.192 20.48-20.48s-8.192-20.48-20.48-20.48c-161.792 0-303.104 38.912-368.64 98.304v-129.024c0-69.632 163.84-137.216 368.64-137.216 69.632 0 137.216 8.192 196.608 22.528 10.24 2.048 22.528-4.096 24.576-14.336 2.048-10.24-4.096-22.528-14.336-24.576-61.44-14.336-133.12-22.528-204.8-22.528-161.792 0-303.104 38.912-368.64 98.304v-133.12z m0-79.872v-129.024c0-65.536 151.552-137.216 368.64-137.216s368.64 71.68 368.64 137.216V199.68c-65.536-59.392-206.848-98.304-368.64-98.304s-303.104 38.912-368.64 98.304z m653.312 57.344c-14.336 0-24.576 12.288-24.576 24.576 0 14.336 12.288 24.576 24.576 24.576 14.336 0 24.576-12.288 24.576-24.576 2.048-12.288-10.24-24.576-24.576-24.576z m0-206.848c-14.336 0-24.576 12.288-24.576 24.576 0 14.336 12.288 24.576 24.576 24.576 14.336 0 24.576-12.288 24.576-24.576 2.048-12.288-10.24-24.576-24.576-24.576z"  horiz-adv-x="1024" />

    
    <glyph glyph-name="web-icon-" unicode="&#59109;" d="M768.928 561.984l-94.208 94.208L300.544 281.984l-4.416-98.592 98.592 4.416 374.208 374.176zM862.048 118.528H246.048a44.16 44.16 0 0 1-44-44 44.16 44.16 0 0 1 44-44h616a44.16 44.16 0 0 1 44 44c0 24.192-19.776 44-44 44zM787.712 580.8l-94.208 94.208 26.4 26.4a39.488 39.488 0 0 0 55.648 0l38.56-38.56a39.488 39.488 0 0 0 0-55.648l-26.4-26.4z"  horiz-adv-x="1024" />

    
    <glyph glyph-name="diannao-tianchong" unicode="&#58945;" d="M947.2 810.666667h-853.333333C57.6 810.666667 21.333333 782.933333 21.333333 746.666667v-533.333334h981.333334V746.666667c0 36.266667-21.333333 64-55.466667 64zM21.333333 149.33333300000004c0-36.266667 36.266667-64 72.533334-64H490.666667v-85.333333h-204.8c-12.8 0-21.333333-8.533333-21.333334-21.333333s8.533333-21.333333 21.333334-21.333334h469.333333c12.8 0 21.333333 8.533333 21.333333 21.333334s-8.533333 21.333333-21.333333 21.333333H533.333333v85.333333h413.866667c36.266667 0 55.466667 27.733333 55.466667 64v21.333334H21.333333v-21.333334z"  horiz-adv-x="1024" />

    
    <glyph glyph-name="chuangjian" unicode="&#58887;" d="M678.4 631.466667h145.066667c12.8 0 21.333333 8.533333 25.6 17.066666 4.266667 8.533333 0 21.333333-4.266667 29.866667L699.733333 810.666667c-8.533333 8.533333-21.333333 8.533333-29.866666 4.266666-12.8-4.266667-17.066667-12.8-17.066667-25.6v-132.266666c-4.266667-17.066667 8.533333-25.6 25.6-25.6z m183.466667-59.733334h-217.6c-34.133333 0-59.733333 25.6-59.733334 55.466667V827.733333c0 12.8-12.8 25.6-29.866666 25.6H226.133333c-51.2 0-89.6-38.4-89.6-81.066666V42.666667c0-46.933333 42.666667-85.333333 89.6-85.333334h576c51.2 0 89.6 38.4 89.6 85.333334V546.133333c0 17.066667-12.8 25.6-29.866666 25.6z m-140.8-332.8c-8.533333-8.533333-17.066667-12.8-29.866667-12.8h-123.733333v-115.2c0-8.533333-4.266667-21.333333-12.8-25.6-8.533333-8.533333-17.066667-12.8-29.866667-12.8-12.8 0-21.333333 4.266667-29.866667 12.8-8.533333 8.533333-12.8 17.066667-12.8 25.6v115.2H366.933333c-12.8 0-21.333333 4.266667-29.866666 12.8-8.533333 8.533333-12.8 17.066667-12.8 25.6 0 21.333333 17.066667 38.4 42.666666 38.4h123.733334v115.2c0 21.333333 17.066667 38.4 42.666666 38.4 21.333333 0 42.666667-17.066667 42.666667-38.4v-115.2h123.733333c21.333333 0 42.666667-17.066667 42.666667-38.4-8.533333-8.533333-12.8-17.066667-21.333333-25.6z"  horiz-adv-x="1024" />

    
    <glyph glyph-name="jjia-" unicode="&#59049;" d="M512 895.994C229.233 895.994 0.006 666.767 0.006 384c0-282.766 229.228-511.993 511.994-511.993S1023.993 101.235 1023.993 384C1023.993 666.767 794.766 895.994 512 895.994z m319.607-831.601c-41.53-41.529-89.874-74.128-143.689-96.891-55.686-23.553-114.873-35.495-175.918-35.495s-120.233 11.942-175.918 35.495c-53.816 22.763-102.161 55.361-143.69 96.891-41.53 41.53-74.128 89.874-96.891 143.689C71.948 263.768 60.006 322.955 60.006 384s11.942 120.233 35.495 175.918c22.762 53.816 55.361 102.16 96.891 143.69s89.874 74.128 143.69 96.891C391.767 824.052 450.955 835.994 512 835.994s120.232-11.942 175.918-35.495c53.815-22.763 102.159-55.361 143.689-96.891 41.529-41.53 74.128-89.875 96.891-143.69 23.553-55.685 35.495-114.873 35.495-175.918s-11.942-120.232-35.495-175.918c-22.763-53.815-55.361-102.159-96.891-143.689zM795.465 384c0-23.483-19.037-42.52-42.52-42.52h-481.89c-23.483 0-42.52 19.036-42.52 42.52 0 23.483 19.037 42.52 42.52 42.52h481.89c23.483 0 42.52-19.037 42.52-42.52zM512 100.535c-23.483 0-42.52 19.037-42.52 42.52V624.946c0 23.482 19.036 42.52 42.519 42.52 23.483 0 42.52-19.037 42.52-42.52v-481.891c0.001-23.483-19.036-42.52-42.519-42.52z"  horiz-adv-x="1024" />

    
    <glyph glyph-name="gengduo" unicode="&#58891;" d="M512-37.8c-112.667 0-218.59 43.874-298.258 123.543C134.075 165.41 90.2 271.333 90.2 384s43.875 218.591 123.542 298.258S399.333 805.8 512 805.8s218.59-43.875 298.257-123.542C889.926 602.591 933.8 496.667 933.8 384s-43.874-218.59-123.543-298.257C730.59 6.074 624.667-37.8 512-37.8z m0 786.299c-200.986 0-364.499-163.514-364.499-364.499 0-200.986 163.514-364.499 364.499-364.499 200.986 0 364.499 163.513 364.499 364.499 0 200.986-163.513 364.499-364.499 364.499zM309.755 384m-67.497 0a67.497 67.497 0 1 1 134.994 0 67.497 67.497 0 1 1-134.994 0ZM512 384m-67.497 0a67.497 67.497 0 1 1 134.994 0 67.497 67.497 0 1 1-134.994 0ZM714.245 384m-67.497 0a67.497 67.497 0 1 1 134.994 0 67.497 67.497 0 1 1-134.994 0Z"  horiz-adv-x="1024" />

    
    <glyph glyph-name="tupian" unicode="&#59045;" d="M615.56306173 818.96485925l-459.56108642-6.47269135v-859.57341235h717.17420247V566.5298963L615.56306173 818.96485925zM310.18148347 538.69732347c35.85871013 0 64.98582124-29.12711111 64.98582122-64.98582125 0-23.17223506-12.42756741-44.66157037-32.49291061-56.18296098-20.0653432-11.65084445-44.79102419-11.65084445-64.98582125 0-20.0653432 11.65084445-32.49291061 33.01072592-32.49291061 56.18296098 0 35.98816395 29.12711111 65.11527506 64.98582125 64.98582125zM237.55788642 181.27530666999996l129.06546568 181.49426568 85.8278874-91.52385582 163.11182223 174.24485137 164.53581432-264.34471507H237.55788642zM629.02625975 789.44938667h-469.91739258c-15.92282075 0-28.99765728 13.07483653-28.9976573 28.99765728 0 15.92282075 13.07483653 28.99765728 28.9976573 28.99765729h469.91739258c15.92282075 0 28.99765728-13.07483653 28.99765728-28.99765729 0-15.92282075-13.07483653-28.99765728-28.99765728-28.99765728zM861.52533333-80.09197037000001H159.62668247c-15.92282075 0-28.99765728 13.07483653-28.99765729 28.99765728 0 15.92282075 13.07483653 28.99765728 28.99765729 28.99765728H861.52533333c15.92282075 0 28.99765728-13.07483653 28.99765728-28.99765728 0-15.92282075-12.94538272-28.99765728-28.99765728-28.99765728z m0 0M159.10886717-80.09197037000001c-15.92282075 0-28.99765728 13.07483653-28.9976573 28.99765728V814.43397531c0 15.92282075 13.07483653 28.99765728 28.9976573 28.99765728 15.92282075 0 28.99765728-13.07483653 28.99765728-28.99765728V-50.96485925000002c0-16.05227457-13.07483653-29.12711111-28.99765728-29.12711112z m705.52335801 0c-15.92282075 0-28.99765728 13.07483653-28.99765728 28.99765728V560.96338173c0 15.92282075 13.07483653 28.99765728 28.99765728 28.99765729 15.92282075 0 28.99765728-13.07483653 28.99765729-28.99765729v-612.05769482c0-15.92282075-12.94538272-28.99765728-28.99765729-28.99765728z m0 0M857.1239032 551.51325235H631.35642864c-15.92282075 0-28.99765728 13.07483653-28.99765728 28.99765728V817.15250569c0 15.92282075 30.16274173 20.45370469 46.08556247 20.45370468L886.1215605 580.51090963c0-15.92282075-13.07483653-28.99765728-28.9976573-28.99765728z"  horiz-adv-x="1024" />

    
    <glyph glyph-name="xiala" unicode="&#58916;" d="M512 270.336L131.584 650.752c-28.16 28.16-73.216 28.16-101.376 0s-28.16-73.216 0-101.376l420.864-420.864c2.56-4.096 5.632-7.68 9.216-11.264 14.336-14.336 32.768-21.504 51.712-20.992 18.432 0 37.376 6.656 51.712 20.992 3.584 3.584 6.656 7.168 9.216 11.264l420.864 420.864c13.824 13.824 20.992 32.256 20.992 50.688 0 18.432-7.168 36.864-20.992 50.688-28.16 28.16-73.216 28.16-101.376 0L512 270.336z"  horiz-adv-x="1024" />

    
    <glyph glyph-name="wenben" unicode="&#58943;" d="M853.333333 839.111111H170.666667c-62.577778 0-113.777778-51.2-113.777778-113.777778v-682.666666c0-62.577778 51.2-113.777778 113.777778-113.777778h682.666666c62.577778 0 113.777778 51.2 113.777778 113.777778V725.333333c0 62.577778-51.2 113.777778-113.777778 113.777778z m-56.888889-341.333333h-56.888888c0 34.133333-22.755556 56.888889-56.888889 56.888889h-113.777778v-347.022223c0-28.444444 22.755556-51.2 51.2-51.2h5.688889v-56.888888H398.222222v56.888888h5.688889c28.444444 0 51.2 22.755556 51.2 51.2V554.666667H341.333333c-34.133333 0-56.888889-22.755556-56.888889-56.888889H227.555556V611.555556h568.888888v-113.777778z"  horiz-adv-x="1024" />

    
    <glyph glyph-name="shipin" unicode="&#58880;" d="M805.76 896H205.28a126.72 126.72 0 0 1-126.4-126.4v-771.2a126.72 126.72 0 0 1 126.4-126.4h600.48a126.88 126.88 0 0 1 126.4 126.4V769.6A126.88 126.88 0 0 1 805.76 896zM640 355.2L429.28 233.76a33.28 33.28 0 0 0-49.92 28.8V505.44a33.28 33.28 0 0 0 49.92 28.8L640 412.8a33.28 33.28 0 0 0 0-57.6z"  horiz-adv-x="1024" />

    
    <glyph glyph-name="cha" unicode="&#58889;" d="M632.117978 382.166644l361.805812-361.735298a85.462608 85.462608 0 1 0-121.001515-120.789974L511.116463 261.447184 146.913186-102.756094a86.026718 86.026718 0 0 0-121.706652 121.706652L389.480325 383.224349 27.674513 745.030161A85.392095 85.392095 0 0 0 148.393973 865.749621L510.199785 503.943809l366.671258 366.671258a86.026718 86.026718 0 0 0 121.706652-121.706652z"  horiz-adv-x="1024" />

    
    <glyph glyph-name="yemian" unicode="&#58882;" d="M595.968 469.333333h-85.333333V896H128a42.666667 42.666667 0 0 1-42.666667-42.666667v-938.666666a42.666667 42.666667 0 0 1 42.666667-42.666667h768a42.666667 42.666667 0 0 1 42.666667 42.666667V469.333333H595.968z m0 85.333334H936.106667c-8.277333 65.621333-35.669333 80.981333-66.645334 111.957333l-75.946666 75.946667-0.085334 0.085333 0.085334-0.085333-1.109334 1.109333-26.026666 26.026667-1.024 1.024-75.946667 75.946666C664.405333 871.509333 645.12 888.32 595.968 893.952V554.666667z"  horiz-adv-x="1024" />

    
    <glyph glyph-name="B" unicode="&#59142;" d="M846.8736 447.51872a36.1472 36.1472 0 0 1-36.19328-36.10112v-313.9584a86.912 86.912 0 0 0-86.92736-86.7072H220.75392a86.912 86.912 0 0 0-86.92224 86.70208V599.13728a86.912 86.912 0 0 0 86.92224 86.70208H535.552a36.10112 36.10112 0 1 1 0 72.192H220.75392A159.28832 159.28832 0 0 1 61.44 599.13728v-501.6832A159.28832 159.28832 0 0 1 220.75392-61.44h502.99904a159.28832 159.28832 0 0 1 159.31904 158.8992v313.9584a36.15232 36.15232 0 0 1-36.1984 36.10112z m87.94624 276.92032l-82.72896 82.5088a77.48096 77.48096 0 0 1-109.22496 0L353.46944 418.56512l-0.04608-0.0512-0.04096-0.03072c-0.06144-0.06144-0.09728-0.13312-0.15872-0.19456a76.8768 76.8768 0 0 1-20.48-37.27872L302.67392 247.808a56.63232 56.63232 0 0 1 55.26016-68.98688 57.37984 57.37984 0 0 1 10.89024 1.024l137.17504 26.58816a77.056 77.056 0 0 1 39.88992 21.1456l0.08704 0.08192 388.84352 387.83488a76.98432 76.98432 0 0 1 0 108.94336zM394.6752 326.656l57.63584-57.10336-73.728-14.28992z m488.96 339.8656L520.192 304.0768 430.336 393.12384l363.71968 362.76736a4.85888 4.85888 0 0 0 6.85056 0l82.72384-82.50368a4.82816 4.82816 0 0 0 0-6.84032z"  horiz-adv-x="1024" />

    
    <glyph glyph-name="yingyong" unicode="&#58976;" d="M426.62 761.77a124.12 124.12 0 0 1-83.9 32.29H190.31a124.77 124.77 0 0 1-82.81-31c-25.77-22.32-40-56.46-40.17-90.26-0.17-34.12 0-68.24 0-102.36v-48.87c0-25.3 5.64-50.67 20.27-71.75 22.64-32.62 58.45-53 98.42-54 10.78-0.26 21.58 0 32.36 0h126.15A125.27 125.27 0 0 1 401.26 410c17.14 8.87 30.92 22.27 42.27 37.66 15.59 21.14 21.79 47.42 21.79 73.32V635c0 12.57 0.06 25.15 0 37.72-0.15 33.28-13.84 66.54-38.7 89.05z m-44.83-293.53c-0.56-0.41-1.12-0.81-1.7-1.19a93.09 93.09 0 0 0-11.82-6.71 94.64 94.64 0 0 0-15.61-4.28q-4.05-0.36-8.13-0.41H203c-7.71 0-15.46-0.22-23.15 0.43a94.49 94.49 0 0 0-15.49 4.26 93.09 93.09 0 0 0-11.8 6.66c-0.57 0.38-1.13 0.78-1.69 1.18-2 1.75-4 3.46-5.84 5.34s-3.57 3.82-5.3 5.79c-0.41 0.58-0.82 1.15-1.21 1.74a92.41 92.41 0 0 0-6.68 11.78 95.26 95.26 0 0 0-4.26 15.47c-0.57 6.93-0.43 13.89-0.43 20.85V657c0 8.12-0.26 16.32 0.42 24.42a94.7 94.7 0 0 0 4.27 15.58 91.73 91.73 0 0 0 6.68 11.78c0.39 0.59 0.79 1.16 1.2 1.73 1.74 2 3.45 3.94 5.31 5.81s3.84 3.59 5.82 5.33c0.57 0.4 1.13 0.8 1.71 1.19a91.82 91.82 0 0 0 11.82 6.7 94.15 94.15 0 0 0 15.46 4.26c6.92 0.57 13.86 0.43 20.81 0.43h127.74c8.1 0 16.28 0.26 24.37-0.42a94.74 94.74 0 0 0 15.51-4.27 91.27 91.27 0 0 0 11.83-6.7c0.57-0.39 1.13-0.78 1.68-1.18 2-1.75 4-3.47 5.84-5.34s3.58-3.82 5.3-5.79c0.41-0.58 0.82-1.16 1.21-1.75a92.3 92.3 0 0 0 6.68-11.78 94.37 94.37 0 0 0 4.26-15.48c0.57-6.93 0.43-13.89 0.43-20.86v-127.84c0-8.11 0.26-16.31-0.42-24.41a95 95 0 0 0-4.27-15.53 92.41 92.41 0 0 0-6.68-11.78c-0.39-0.59-0.8-1.16-1.2-1.73-1.74-2-3.45-3.94-5.31-5.8s-3.84-3.57-5.83-5.33zM426.62 303a124.14 124.14 0 0 1-83.9 32.29H190.31a124.81 124.81 0 0 1-82.81-31c-25.77-22.33-40-56.46-40.17-90.26-0.17-34.12 0-68.24 0-102.36v-48.86c0-25.3 5.64-50.67 20.27-71.75 22.64-32.62 58.45-53 98.42-54 10.78-0.26 21.58 0 32.36 0h126.15a125.31 125.31 0 0 1 56.74 14.21c17.14 8.87 30.91 22.27 42.26 37.66 15.59 21.15 21.79 47.42 21.79 73.33V176.22c0 12.57 0.06 25.14 0 37.72-0.15 33.29-13.84 66.58-38.7 89.06zM381.8 9.5l-1.7-1.19a91.27 91.27 0 0 0-11.83-6.7 94.83 94.83 0 0 0-15.6-4.29c-2.71-0.24-5.42-0.38-8.14-0.4H203c-7.71 0-15.46-0.22-23.15 0.42a95.81 95.81 0 0 0-15.49 4.27 91.82 91.82 0 0 0-11.82 6.7l-1.69 1.18c-2 1.75-4 3.47-5.84 5.34s-3.58 3.82-5.3 5.8c-0.41 0.57-0.82 1.15-1.21 1.74a92.41 92.41 0 0 0-6.68 11.78 94.26 94.26 0 0 0-4.26 15.47c-0.57 6.93-0.43 13.89-0.43 20.85V198.31c0 8.12-0.26 16.32 0.42 24.42a95 95 0 0 0 4.27 15.53 92.41 92.41 0 0 0 6.7 11.74c0.39 0.58 0.79 1.15 1.2 1.72 1.74 2 3.45 4 5.31 5.81s3.84 3.6 5.82 5.33c0.57 0.41 1.13 0.8 1.71 1.19a93.09 93.09 0 0 0 11.82 6.71 96.17 96.17 0 0 0 15.46 4.26c6.92 0.57 13.86 0.43 20.81 0.43h127.74c8.1 0 16.28 0.26 24.37-0.42a95.75 95.75 0 0 0 15.51-4.27 92.52 92.52 0 0 0 11.83-6.71c0.57-0.38 1.13-0.78 1.68-1.18 2-1.75 4-3.46 5.84-5.34s3.58-3.82 5.3-5.79c0.41-0.58 0.82-1.15 1.21-1.74a92.41 92.41 0 0 0 6.68-11.78 94.26 94.26 0 0 0 4.26-15.47c0.57-6.94 0.43-13.9 0.43-20.86v-127.8c0-8.12 0.26-16.31-0.42-24.42a95 95 0 0 0-4.27-15.53 92.41 92.41 0 0 0-6.68-11.78c-0.39-0.58-0.79-1.15-1.2-1.72-1.74-2-3.45-3.95-5.31-5.81s-3.84-3.6-5.82-5.33zM883.65 303a124.11 124.11 0 0 1-83.91 32.29H647.33a124.79 124.79 0 0 1-82.81-31c-25.77-22.33-40-56.46-40.17-90.26-0.18-34.12 0-68.24 0-102.36v-48.86c0-25.3 5.64-50.67 20.27-71.75 22.63-32.62 58.44-53 98.41-54 10.78-0.26 21.59 0 32.37 0h126.15a125.28 125.28 0 0 1 56.74 14.21c17.14 8.87 30.92 22.27 42.27 37.66 15.59 21.15 21.79 47.42 21.79 73.33V176.22c0 12.57 0.06 25.14 0 37.72-0.15 33.29-13.85 66.58-38.7 89.06z m-44.83-293.5c-0.56-0.4-1.12-0.8-1.7-1.19a91.82 91.82 0 0 0-11.82-6.7 95.67 95.67 0 0 0-15.61-4.29c-2.7-0.24-5.41-0.38-8.14-0.4H660c-7.71 0-15.46-0.22-23.15 0.42a95.41 95.41 0 0 0-15.48 4.27 91.27 91.27 0 0 0-11.83 6.7l-1.69 1.18c-2 1.75-4 3.47-5.83 5.34s-3.58 3.82-5.3 5.79l-1.22 1.74a92.35 92.35 0 0 0-6.67 11.78 94.37 94.37 0 0 0-4.26 15.48c-0.57 6.93-0.43 13.89-0.43 20.85V198.31c0 8.12-0.26 16.32 0.42 24.42a95 95 0 0 0 4.27 15.53 91.22 91.22 0 0 0 6.71 11.74c0.39 0.58 0.79 1.16 1.2 1.73 1.74 2 3.45 3.94 5.31 5.8s3.84 3.6 5.82 5.34c0.57 0.4 1.13 0.8 1.7 1.18a93.21 93.21 0 0 0 11.83 6.71 95.89 95.89 0 0 0 15.46 4.26c6.91 0.57 13.85 0.43 20.8 0.43h127.75c8.11 0 16.28 0.26 24.37-0.42a95.59 95.59 0 0 0 15.52-4.27 93.09 93.09 0 0 0 11.82-6.71c0.57-0.38 1.13-0.78 1.69-1.18 2-1.75 4-3.46 5.84-5.34s3.57-3.82 5.3-5.79c0.41-0.58 0.82-1.15 1.21-1.74a92.41 92.41 0 0 0 6.68-11.78 96.29 96.29 0 0 0 4.26-15.47c0.57-6.94 0.43-13.9 0.43-20.86v-127.8c0-8.12 0.26-16.31-0.42-24.42a96 96 0 0 0-4.27-15.53 92.41 92.41 0 0 0-6.68-11.78c-0.39-0.58-0.8-1.15-1.2-1.72-1.74-2-3.45-3.95-5.31-5.81s-3.84-3.59-5.83-5.33zM762 438.68l0.24 0.18 0.38 0.34c-1-0.73-1.65-1.18-2-1.43zM921.19 684.63c-22.46 22.82-45.23 45.35-67.85 68l-36.69 36.79c-17.09 17.14-36.36 31.06-60.14 37.47-41.51 11.24-86.64-1.11-117.15-31.26-7.42-7.33-14.74-14.78-22.11-22.17q-40.82-40.9-81.62-81.83c-2.35-2.34-4.7-4.67-7-7a127.06 127.06 0 0 1-29-46.72c-12.4-34.37-6.95-76.46 14-106.43 8.63-12.35 19-22.42 29.57-33l42.17-42.28 41.05-41.2c11.79-11.82 23.24-23.74 37.89-32.24a122.59 122.59 0 0 1 59-16.21h1.64c33.36 0.21 64 13.94 87.46 37.43l30.3 30.38 76.38 76.57a148.65 148.65 0 0 1 18 21.73c11.17 16.53 16.77 35.63 19 55.25 4.03 35.32-10.16 71.59-34.9 96.72z m-42.28-129.28c-1.69-1.73-3.41-3.43-5.12-5.14l-28-28.07-68.84-69-8.17-8.19c-2-2-4.06-3.87-6.15-5.74 0.53 0.38 1.16 0.82 1.94 1.35-0.79-0.54-1.55-1.13-2.33-1.69-1-0.86-2.5-1.81-1.58-1.09-1.31-0.88-2.63-1.75-4-2.56-2.54-1.53-5.16-2.91-7.84-4.19a96.71 96.71 0 0 0-15.61-4.3c-2.76-0.24-5.53-0.38-8.32-0.4s-5.55 0.16-8.32 0.4A96 96 0 0 0 701 431c-2 0.93-3.88 1.91-5.77 3-2.69 1.53-8.15 3.9-9.94 6.54-0.27 0.41 5.3-4.39 2.93-2.2-0.58 0.55-1.23 1-1.82 1.56a82.73 82.73 0 0 0-4.11 3.83l-0.82 0.81c-2 2-4 4-5.94 6l-28.63 28.71q-34 34.08-68 68.17c-2.55 2.55-5.11 5.1-7.65 7.66l-0.37 0.37c-1.2 1.23-2.38 2.47-3.53 3.76a42.67 42.67 0 0 1-2.75 3.49l-0.1 0.15q-1.59 2.35-3 4.81c-1.32 2.25-2.52 4.57-3.65 6.92a97.44 97.44 0 0 0-4.4 16 97.42 97.42 0 0 0 0 16.56 95.85 95.85 0 0 0 4.3 15.86 104.83 104.83 0 0 0 8 13.61c0.86 1 1.71 2 2.61 3s1.76 1.87 2.66 2.79c1.79 1.81 3.6 3.6 5.4 5.41l28 28.07q34.26 34.33 68.51 68.69l8.23 8.25c1.9 1.89 3.89 3.69 5.9 5.46l-1.72-1.17c0.73 0.49 1.43 1 2.15 1.56l0.16 0.14c0.92 0.81 2.31 1.65 1.75 1.17 1.26 0.85 2.53 1.67 3.83 2.45 2.53 1.52 5.14 2.88 7.79 4.15a96.7 96.7 0 0 0 15.69 4.33 97.07 97.07 0 0 0 16.53 0 97.25 97.25 0 0 0 15.71-4.34c1.93-0.92 3.84-1.89 5.71-2.95 2.46-1.39 8.52-4 9.95-6.51 0.23-0.41-5.3 4.37-2.93 2.21 0.59-0.54 1.23-1 1.83-1.55q2.13-1.84 4.12-3.81l0.82-0.81c2-2 4-4 5.94-6l29-29 68-68.22c2.44-2.45 4.88-4.88 7.31-7.33l0.84-0.86q1.8-1.83 3.5-3.77c0.64-0.73 1.25-1.49 1.89-2.22 2.67-3-1.64 2.36-2 2.64 2.55-2 4.64-6.73 6.23-9.54 1.1-1.94 2.1-3.91 3-5.92a96 96 0 0 0 4.31-15.79 95.17 95.17 0 0 0 0-16.54 96.79 96.79 0 0 0-4.3-15.77 92.17 92.17 0 0 0-7.61-13.16c-0.29-0.42-0.6-0.84-0.9-1.26s-0.81-0.81-1.15-1.2a73.598 73.598 0 0 0-3.6-3.86z m5.11 5.39c0.87 1.18 1.92 2.6 1.78 2.33a9.51 9.51 0 0 0-1.8-2.33zM687.86 758.94l-0.42-0.31-0.43-0.39c1.37 0.95 2.07 1.47 2.34 1.7-0.5-0.33-1-0.66-1.49-1z"  horiz-adv-x="1024" />

    
    <glyph glyph-name="spin" unicode="&#59473;" d="M764.256 701.248l-90.24-90.624C734.496 550.112 768 469.632 768 384c0-176.512-143.488-320-320-320l0 64-128-128 128-128 0 64c247.008 0 448 200.992 448 448C896 503.872 849.248 616.512 764.256 701.248zM576 768l-128 128 0-64C200.992 832 0 631.008 0 384c0-119.872 46.752-232.512 131.744-317.248l90.24 90.624C161.504 217.888 128 298.368 128 384 128 560.512 271.488 704 448 704l0-64L576 768z"  horiz-adv-x="1024" />

    
    <glyph glyph-name="weibiaoti1" unicode="&#58907;" d="M671.053824 642.916352c6.05184-3.01056 13.463552-0.52224 16.47616 5.5296l43.646976 87.740416c3.012608 6.05184 0.524288 13.4656-5.527552 16.474112l-112.308224 55.86944c-6.05184 3.01056-13.4656 0.52224-16.47616-5.5296l-43.649024-87.740416c-3.01056-6.05184-0.52224-13.4656 5.527552-16.474112L671.053824 642.916352zM448.755712 176.400384c4.622336 4.931584 10.866688 13.91616 13.877248 19.968l203.35616 408.778752c3.012608 6.05184 0.524288 13.4656-5.527552 16.474112l-112.310272 55.873536c-6.05184 3.01056-13.463552 0.52224-16.47616-5.5296L329.13408 264.822784c-3.01056-6.05184-6.268928-16.474112-7.241728-23.16288l-32.774144-225.294336c-0.9728-6.688768 2.013184-8.126464 6.63552-3.19488L448.755712 176.400384z"  horiz-adv-x="1024" />

    
    <glyph glyph-name="Aa" unicode="&#58934;" d="M704 0H602.496l-72.512 210.24H233.856L165.376 0H64L334.848 768h98.24L704 0zM501.44 297.024L394.048 616.32c-3.392 10.176-7.04 28.096-11.008 53.504h-2.304c-3.392-23.168-7.232-40.96-11.456-53.504L262.72 297.024h238.72zM735.04 291.52C766.72 310.528 803.328 320 844.736 320c76.8 0 115.2-38.656 115.2-116.032v-196.736h-55.872v47.232h-1.408c-22.08-36.352-54.592-54.464-97.6-54.464-30.976 0-55.488 8-73.728 24.064-18.24 16-27.392 37.696-27.392 64.896 0 57.216 35.264 90.368 105.664 99.84l94.464 12.672c0 49.92-21.504 74.88-64.512 74.88-38.208 0-73.024-12.288-104.512-36.992v52.16z m94.464-140.672c-26.112-3.328-44.096-9.536-54.016-18.816-9.92-9.216-14.784-22.08-14.784-38.656 0-14.528 5.376-26.368 16.128-35.648 10.752-9.216 24.96-13.824 42.56-13.824 24.64 0 44.864 8.32 60.8 24.896 15.872 16.576 23.872 37.376 23.872 62.464v29.312l-74.56-9.728z"  horiz-adv-x="1024" />

    
    <glyph glyph-name="fangdajing" unicode="&#58896;" d="M678.409391 314.369639l345.795505-345.727206-96.642434-96.642433L581.903555 217.795505zM394.765557 106.468885a394.765557 394.765557 0 1 0 394.765558 394.765558 394.765557 394.765557 0 0 0-394.765558-394.765558z m0 652.934036a258.168479 258.168479 0 1 1 258.168479-258.168478A258.851464 258.851464 0 0 1 394.765557 759.402921z"  horiz-adv-x="1024" />

    


  </font>
</defs>
</svg>
